<?xml version="1.0" encoding="UTF-8" standalone="no" ?>
<!DOCTYPE svg PUBLIC "-//W3C//DTD SVG 1.1//EN" "http://www.w3.org/Graphics/SVG/1.1/DTD/svg11.dtd">
<svg xmlns="http://www.w3.org/2000/svg" xmlns:xlink="http://www.w3.org/1999/xlink" version="1.1" width="1280" height="1024" viewBox="0 0 1280 1024" xml:space="preserve">
<desc>Created with Fabric.js 5.3.0</desc>
<defs>
</defs>
<g transform="matrix(1 0 0 1 640 512)" id="background-logo"  >
<rect style="stroke: none; stroke-width: 0; stroke-dasharray: none; stroke-linecap: butt; stroke-dashoffset: 0; stroke-linejoin: miter; stroke-miterlimit: 4; fill: rgb(255,255,255); fill-opacity: 0; fill-rule: nonzero; opacity: 1;"  paint-order="stroke"  x="-640" y="-512" rx="0" ry="0" width="1280" height="1024" />
</g>
<g transform="matrix(3.5445102088005633 0 0 3.5445102088005633 619.7063711911358 449.2791129475941)" id="logo-logo"  >
<g style=""  paint-order="stroke"   >
		<g transform="matrix(0.5123558004185356 0 0 -0.5123558004185356 18.71343696122665 23.241714378695832)"  >
<path style="stroke: none; stroke-width: 1; stroke-dasharray: none; stroke-linecap: butt; stroke-dashoffset: 0; stroke-linejoin: miter; stroke-miterlimit: 4; fill: rgb(0,128,255); fill-rule: nonzero; opacity: 1;"  paint-order="stroke"  transform=" translate(-58.977999999999994, -134.2655)" d="M 0 0 C -6.448 0 -11.676 5.228 -11.676 11.676 C -11.676 18.124000000000002 -6.448 23.352 0 23.352 C 58.603 23.352 106.28 71.03 106.28 129.632 L 106.28 256.855 C 106.28 263.303 111.508 268.531 117.956 268.531 C 124.405 268.531 129.632 263.303 129.632 256.855 L 129.632 129.632 C 129.632 58.154 71.479 0 0 0" stroke-linecap="round" />
</g>
		<g transform="matrix(0.5123558004185356 0 0 -0.5123558004185356 48.93136230063129 -72.0343819641538)"  >
<path style="stroke: none; stroke-width: 1; stroke-dasharray: none; stroke-linecap: butt; stroke-dashoffset: 0; stroke-linejoin: miter; stroke-miterlimit: 4; fill: rgb(255,255,255); fill-rule: nonzero; opacity: 1;"  paint-order="stroke"  transform=" translate(0, -39.0335)" d="M 0 0 C -6.448 0 -11.676 5.228 -11.676 11.676 L -11.676 66.392 C -11.676 72.84 -6.448 78.067 0 78.067 C 6.448 78.067 11.676 72.83999999999999 11.676 66.392 L 11.676 11.676 C 11.676 5.228 6.448 0 0 0" stroke-linecap="round" />
</g>
		<g transform="matrix(0.5123558004185356 0 0 -0.5123558004185356 -48.931208593891256 -1.9770017092849912)"  >
<path style="stroke: none; stroke-width: 1; stroke-dasharray: none; stroke-linecap: butt; stroke-dashoffset: 0; stroke-linejoin: miter; stroke-miterlimit: 4; fill: rgb(0,128,255); fill-rule: nonzero; opacity: 1;"  paint-order="stroke"  transform=" translate(0, -19.491)" d="M 0 0 C -6.448 0 -11.676 5.228 -11.676 11.676 L -11.676 27.306 C -11.676 33.754000000000005 -6.448 38.982 0 38.982 C 6.448 38.982 11.676 33.754 11.676 27.305999999999997 L 11.676 11.676 C 11.676 5.228 6.448 0 0 0" stroke-linecap="round" />
</g>
		<g transform="matrix(0.5123558004185356 0 0 -0.5123558004185356 -11.504283435857758 -0.00012808895010607557)"  >
<path style="stroke: none; stroke-width: 1; stroke-dasharray: none; stroke-linecap: butt; stroke-dashoffset: 0; stroke-linejoin: miter; stroke-miterlimit: 4; fill: rgb(255,255,255); fill-rule: nonzero; opacity: 1;"  paint-order="stroke"  transform=" translate(0, -134.7205)" d="M 0 0 C -46.717 0 -84.725 38.007 -84.725 84.725 L -84.725 97.753 C -84.725 104.202 -79.497 109.429 -73.04899999999999 109.429 C -66.6 109.429 -61.37299999999999 104.202 -61.37299999999999 97.753 L -61.37299999999999 84.725 C -61.37299999999999 50.88399999999999 -33.840999999999994 23.351999999999997 7.105427357601002e-15 23.351999999999997 C 33.84000000000001 23.351999999999997 61.373000000000005 50.884 61.373000000000005 84.725 L 61.373000000000005 257.765 C 61.373000000000005 264.21299999999997 66.60000000000001 269.441 73.049 269.441 C 79.49700000000001 269.441 84.72500000000001 264.21299999999997 84.72500000000001 257.765 L 84.72500000000001 84.725 C 84.725 38.007 46.718 0 0 0" stroke-linecap="round" />
</g>
		<g transform="matrix(0.5123558004185356 0 0 -0.5123558004185356 -11.504283435857758 -0.00023056011019662037)"  >
<path style="stroke: none; stroke-width: 1; stroke-dasharray: none; stroke-linecap: butt; stroke-dashoffset: 0; stroke-linejoin: miter; stroke-miterlimit: 4; fill: rgb(0,128,255); fill-rule: nonzero; opacity: 1;"  paint-order="stroke"  transform=" translate(-7.10543e-15, -89.81299999999999)" d="M 0 0 C -21.955 0 -39.817 17.861 -39.817 39.817 L -39.817 60.171 C -39.817 66.62 -34.589 71.847 -28.141 71.847 C -21.692999999999998 71.847 -16.464999999999996 66.61999999999999 -16.464999999999996 60.17099999999999 L -16.464999999999996 39.817 C -16.464999999999996 30.739 -9.078999999999997 23.352 3.552713678800501e-15 23.352 C 9.079000000000004 23.352 16.465000000000003 30.739 16.465000000000003 39.817 L 16.465000000000003 167.95 C 16.465000000000003 174.398 21.693000000000005 179.62599999999998 28.141000000000005 179.62599999999998 C 34.589000000000006 179.62599999999998 39.81700000000001 174.39799999999997 39.81700000000001 167.95 L 39.81700000000001 39.817 C 39.817 17.861 21.955 0 0 0" stroke-linecap="round" />
</g>
</g>
</g>
</svg>